# AST/ASF file generated using VICON BodyLanguage
# -----------------------------------------------
:version 1.10
:name VICON
:units
  mass 1.0
  length 0.45
  angle deg
:documentation
   .ast/.asf automatically generated from VICON data using
   VICON BodyBuilder and BodyLanguage model FoxedUp or BRILLIANT.MOD
:root
   order TX TY TZ RX RY RZ
   axis XYZ
   position 0 0 0  
   orientation 0 0 0 
:bonedata
  begin
     id 1 
     name lhipjoint
     direction 0.627457 -0.725269 0.283342 
     length 2.53237 
     axis 0 0 0  XYZ
  end
  begin
     id 2 
     name lfemur
     direction 0.34202 -0.939693 0  
     length 7.32496  
     axis 0 0 20  XYZ
    dof rx ry rz
    limits (-160.0 20.0)
           (-70.0 70.0)
           (-60.0 70.0)
  end
  begin
     id 3 
     name ltibia
     direction 0.34202 -0.939693 0   
     length 7.69674   
     axis 0 0 20   XYZ
    dof rx
    limits (-10.0 170.0)
  end
  begin
     id 4 
     name lfoot
     direction 0.127289 -0.349722 0.928166   
     length 1.8612   
     axis -90 7.62852e-016 20   XYZ
    dof rx rz
    limits (-45.0 90.0)
           (-70.0 20.0)
  end
  begin
     id 5 
     name ltoes
     direction 1.53561e-011 -4.21864e-011 1   
     length 0.925608   
     axis -90 7.62852e-016 20   XYZ
    dof rx
    limits (-90.0 20.0)
  end
  begin
     id 6 
     name rhipjoint
     direction -0.609094 -0.738725 0.288599   
     length 2.48624  
     axis 0 0 0  XYZ 
  end
  begin
     id 7 
     name rfemur
     direction -0.34202 -0.939693 0   
     length 7.44259   
     axis 0 0 -20   XYZ
    dof rx ry rz
    limits (-160.0 20.0)
           (-70.0 70.0)
           (-70.0 60.0)
  end
  begin
     id 8 
     name rtibia
     direction -0.34202 -0.939693 0   
     length 7.7781   
     axis 0 0 -20   XYZ
    dof rx
    limits (-10.0 170.0)
 end
 begin
     id 9 
     name rfoot
     direction -0.107015 -0.294021 0.949789   
     length 2.14741  
     axis -90 -7.62852e-016 -20   XYZ
    dof rx rz
    limits (-45.0 90.0)
           (-20.0 70.0)
  end
  begin
     id 10 
     name rtoes
     direction -1.53497e-011 -4.21924e-011 1   
     length 1.0706   
     axis -90 -7.62852e-016 -20   XYZ
    dof rx
    limits (-90.0 20.0)
  end
  begin
     id 11 
     name lowerback
     direction -0.0142066 0.998112 -0.0597545   
     length 1.86627   
     axis 0 0 0   XYZ
    dof rx ry rz
    limits (-20.0 45.0)
           (-30.0 30.0)
           (-30.0 30.0)
  end
  begin
     id 12 
     name upperback
     direction 0.00547294 0.999744 0.0219437   
     length 1.86272   
     axis 0 0 0   XYZ
    dof rx ry rz
    limits (-20.0 45.0)
           (-30.0 30.0)
           (-30.0 30.0)
  end
  begin
     id 13 
     name thorax
     direction 0.0116162 0.998704 0.0495538   
     length 1.8703   
     axis 0 0 0   XYZ
    dof rx ry rz
    limits (-20.0 45.0)
           (-30.0 30.0)
           (-30.0 30.0)
  end
  begin
     id 14 
     name lowerneck
     direction -0.0106574 0.998739 0.0490586   
     length 1.8074   
     axis 0 0 0   XYZ
    dof rx ry rz
    limits (-20.0 45.0)
           (-30.0 30.0)
           (-30.0 30.0)
  end
  begin
     id 15 
     name upperneck
     direction 0.030527 0.976587 -0.212944   
     length 1.80681   
     axis 0 0 0   XYZ
    dof rx ry rz
    limits (-20.0 45.0)
           (-30.0 30.0)
           (-30.0 30.0)
  end
  begin
     id 16
     name head
     direction 0.00869225 0.997035 -0.0764531  
     length 1.8313  
     axis 0 0 0   XYZ
    dof rx ry rz
    limits (-20.0 45.0)
           (-30.0 30.0)
           (-30.0 30.0)
  end
  begin
     id 17 
     name lclavicle
     direction 0.915958 0.399447 0.0382386  
     length 3.78965  
     axis 0 0 0   XYZ
    dof ry rz
    limits (-20.0 10.0)
           (0.0 20.0)
  end
  begin
     id 18 
     name lhumerus
     direction 1 -4.48967e-011 3.19303e-027   
     length 4.78095   
     axis -180 -30 -90   XYZ
    dof rx ry rz
    limits (-60.0 90.0)
           (-90.0 90.0)
           (-90.0 90.0)
  end
  begin
     id 19
     name lradius
     direction 1 -4.48967e-011 -3.77974e-027   
     length 3.58615   
     axis -180 -30 -90   XYZ
    dof rx
    limits (-10.0 170.0)
  end
  begin
     id 20
     name lwrist
     direction 1 -4.48927e-011 1.2807e-027   
     length 1.79307   
     axis 1.91374e-015 90 90   XYZ
    dof ry
    limits (-180.0 0.0)
 end
  begin
     id 21 
     name lhand
     direction 1 -4.49036e-011 2.5614e-027   
     length 0.659812   
     axis -1.63439e-015 90 90   XYZ
    dof rx rz
    limits (-90.0 90.0)
           (-45.0 45.0)
  end
  begin
     id 22 
     name lfingers
     direction 1 -4.49052e-011 5.1228e-027   
     length 0.531957   
     axis -3.26879e-015 90 90   XYZ
    dof rx
    limits (0.0 90.0)
  end
  begin
     id 23
     name lthumb
     direction 0.707107 -6.35012e-011 0.707107   
     length 0.763787   
     axis -90 45 2.85299e-015   XYZ
    dof rx rz
    limits (-45.0 45.0)
           (-45.0 45.0)
  end
  begin
     id 24 
     name rclavicle
     direction -0.895351 0.435135 0.0948887   
     length 3.70497  
     axis 0 0 0   XYZ 
    dof ry rz
    limits (-10.0 20.0)
           (-20.0 0.0)
  end
  begin
     id 25 
     name rhumerus
     direction -1 -4.48971e-011 2.38946e-027  
     length 4.48913   
     axis -180 30 90   XYZ
    dof rx ry rz
    limits (-90.0 60.0)
           (-90.0 90.0)
           (-90.0 90.0)
  end
  begin
     id 26 
     name rradius
     direction -1 -4.4895e-011 4.38668e-027   
     length 3.7051   
     axis -180 30 90   XYZ
    dof rx
    limits (-10.0 170.0)
  end
  begin
     id 27 
     name rwrist
     direction -1 -4.49007e-011 1.2807e-027   
     length 1.85255   
     axis 1.91374e-015 -90 -90   XYZ
    dof ry
    limits (-180.0 0.0)
  end
  begin
     id 28
     name rhand
     direction -1 -4.48851e-011 2.5614e-027   
     length 0.449136   
     axis -1.63439e-015 -90 -90   XYZ
    dof rx rz
    limits (-90.0 90.0)
           (-45.0 45.0)
  end
  begin
     id 29
     name rfingers
     direction -1 -4.49128e-011 5.1228e-027   
     length 0.362105   
     axis -3.26879e-015 -90 -90   XYZ
    dof rx
    limits (0.0 90.0)
  end
  begin
     id 30
     name rthumb
     direction -0.707107 -6.34851e-011 0.707107   
     length 0.519912   
     axis -90 -45 -2.85299e-015   XYZ
    dof rx rz
    limits (-45.0 45.0)
           (-45.0 45.0)
  end
:hierarchy
  begin
    root lhipjoint rhipjoint lowerback
    lhipjoint lfemur
    lfemur ltibia
    ltibia lfoot
    lfoot ltoes
    rhipjoint rfemur
    rfemur rtibia
    rtibia rfoot
    rfoot rtoes
    lowerback upperback
    upperback thorax
    thorax lowerneck lclavicle rclavicle
    lowerneck upperneck
    upperneck head
    lclavicle lhumerus
    lhumerus lradius
    lradius lwrist
    lwrist lhand lthumb
    lhand lfingers
    rclavicle rhumerus
    rhumerus rradius
    rradius rwrist
    rwrist rhand rthumb
    rhand rfingers
  end

#!OML:ASF I:\Actors\actors\Patient Classification 2\Patient 1\Session 1\actor1.ASF
:FULLY-SPECIFIED
:DEGREES
1
root -0.639017 18.6658 5.86349 2.12845 -5.20901 -1.5656
lowerback -0.888752 1.56482 0.150809
upperback -2.70931 2.08882 0.0689008
thorax -2.2761 1.04098 -0.0370229
lowerneck -9.37551 -1.53592 -1.56176
upperneck 25.2332 -2.62185 2.92408
head 9.55135 -1.05777 0.991929
rclavicle -7.14382e-015 -2.18663e-015
rhumerus -51.1571 -7.28598 -84.6498
rradius 44.1189
rwrist 20.9387
rhand -8.18913 -33.1467
rfingers 7.12502
rthumb 17.7269 -62.3587
lclavicle -7.14382e-015 -2.18663e-015
lhumerus -43.8132 4.95359 89.1268
lradius 37.6549
lwrist -8.48535
lhand -3.5003 -22.5878
lfingers 7.12502
lthumb 22.2337 6.1533
rfemur 0 0 0
rtibia 0
rfoot 0 0
rtoes 0
lfemur -2.22933 -9.49268 -14.0357
ltibia 20.5456
lfoot -28.6313 19.56
ltoes -52.8725
2
root -0.638904 18.666 5.86475 2.1361 -5.21507 -1.5981
lowerback -0.891402 1.56949 0.172935
upperback -2.69038 2.09535 0.0818846
thorax -2.25482 1.04398 -0.0357251
lowerneck -9.43826 -1.52974 -1.53181
upperneck 25.2156 -2.61049 2.89519
head 9.55602 -1.05224 0.977552
rclavicle 1.10574e-014 7.95139e-016
rhumerus -51.1844 -7.30435 -84.6096
rradius 44.0877
rwrist 21.0269
rhand -8.231 -33.2164
rfingers 7.12502
rthumb 17.6866 -62.432
lclavicle 1.10574e-014 7.95139e-016
lhumerus -43.822 4.90781 89.1388
lradius 37.6517
lwrist -8.47049
lhand -3.5428 -22.67
lfingers 7.12502
lthumb 22.1929 6.07601
rfemur 0 0 0
rtibia 0
rfoot 0 0
rtoes 0
lfemur -2.22159 -9.55854 -14.0113
ltibia 20.5502
lfoot -28.7432 19.5842
ltoes -52.8303
3
root -0.638889 18.6656 5.86596 2.13001 -5.22427 -1.61796
lowerback -0.876253 1.57686 0.189042
upperback -2.68085 2.10519 0.0755162
thorax -2.25269 1.04848 -0.0516329
lowerneck -9.4563 -1.53542 -1.47817
upperneck 25.2036 -2.62689 2.88823
head 9.55486 -1.05551 0.963993
rclavicle -3.50358e-015 9.93923e-016
rhumerus -51.2494 -7.27648 -84.618
rradius 44.1139
rwrist 21.02
rhand -8.07966 -33.2722
rfingers 7.12502
rthumb 17.8322 -62.4746
lclavicle -3.50358e-015 9.93923e-016
lhumerus -43.8501 4.87097 89.1055
lradius 37.6548
lwrist -8.4859
lhand -3.56647 -22.664
lfingers 7.12502
lthumb 22.1702 6.08471
rfemur 0 0 0
rtibia 0
rfoot 0 0
rtoes 0
lfemur -2.20279 -9.67357 -14.0092
ltibia 20.5571
lfoot -28.8575 19.6618
ltoes -52.8369
4
root -0.638569 18.6653 5.86636 2.13347 -5.21579 -1.62784
lowerback -0.865269 1.57578 0.19341
upperback -2.67972 2.10383 0.0763315
thorax -2.25758 1.04772 -0.0535399
lowerneck -9.42181 -1.55317 -1.47725
upperneck 25.1606 -2.65676 2.91009
head 9.53409 -1.06768 0.968169
rclavicle -1.20637e-014 2.38542e-015
rhumerus -51.3213 -7.18382 -84.6323
rradius 44.1489
rwrist 20.9563
rhand -7.92658 -33.2769
rfingers 7.12502
rthumb 17.9795 -62.4658
lclavicle -1.20637e-014 2.38542e-015
lhumerus -43.8852 4.84376 89.0913
lradius 37.6542
lwrist -8.47755
lhand -3.58155 -22.6479
lfingers 7.12502
lthumb 22.1557 6.10249
rfemur 0 0 0
rtibia 0
rfoot 0 0
rtoes 0
lfemur -2.21325 -9.73285 -14.0074
ltibia 20.561
lfoot -28.83 19.7305
ltoes -52.906
5
root -0.637798 18.6652 5.8662 2.14473 -5.20666 -1.61088
lowerback -0.860016 1.57083 0.191884
upperback -2.67389 2.09703 0.0661267
thorax -2.25421 1.04424 -0.0631113
lowerneck -9.42617 -1.56191 -1.52018
upperneck 25.1512 -2.67815 2.9797
head 9.53376 -1.0742 0.99719
rclavicle -3.44891e-014 -1.19271e-015
rhumerus -51.34 -7.14145 -84.6074
rradius 44.1183
rwrist 20.9719
rhand -8.02805 -33.0379
rfingers 7.12502
rthumb 17.8818 -62.2358
lclavicle -3.44891e-014 -1.19271e-015
lhumerus -43.8891 4.85232 89.0577
lradius 37.6256
lwrist -8.48314
lhand -3.56817 -22.6768
lfingers 7.12502
lthumb 22.1686 6.07211
rfemur 0 0 0
rtibia 0
rfoot 0 0
rtoes 0
lfemur -2.22925 -9.74145 -14.0301
ltibia 20.56
lfoot -28.7966 19.7225
ltoes -52.8917
6
root -0.63742 18.6647 5.86766 2.1525 -5.25412 -1.60155
lowerback -0.888146 1.58632 0.206414
upperback -2.64054 2.11725 0.0477239
thorax -2.20283 1.05395 -0.0887838
lowerneck -9.50822 -1.56235 -1.49498
upperneck 25.1802 -2.68261 2.9739
head 9.55942 -1.07348 0.989945
rclavicle -1.31695e-015 -4.57205e-015
rhumerus -51.2866 -7.18964 -84.5601
rradius 44.0633
rwrist 20.9981
rhand -8.22738 -32.8994
rfingers 7.12502
rthumb 17.69 -62.1147
lclavicle -1.31695e-015 -4.57205e-015
lhumerus -43.8534 4.85634 89.0061
lradius 37.6188
lwrist -8.49011
lhand -3.54469 -22.7019
lfingers 7.12502
lthumb 22.1911 6.04435
rfemur 0 0 0
rtibia 0
rfoot 0 0
rtoes 0
lfemur -2.21769 -9.71111 -14.0493
ltibia 20.5576
lfoot -28.8097 19.7187
ltoes -52.8621
7
root -0.637495 18.6643 5.86929 2.16707 -5.29622 -1.60799
lowerback -0.933469 1.59925 0.214161
upperback -2.60662 2.1342 0.0423521
thorax -2.14196 1.06234 -0.0967194
lowerneck -9.53163 -1.5746 -1.43775
upperneck 25.1533 -2.68822 2.8874
head 9.55249 -1.0801 0.949272
rclavicle -6.74625e-015 1.78906e-015
rhumerus -51.2503 -7.2376 -84.5114
rradius 44.0769
rwrist 20.9941
rhand -7.60442 -32.9822
rfingers 7.12502
rthumb 18.2894 -62.1424
lclavicle -6.74625e-015 1.78906e-015
lhumerus -43.8403 4.79367 88.9905
lradius 37.6783
lwrist -8.47228
lhand -3.54658 -22.6327
lfingers 7.12502
lthumb 22.1893 6.11377
rfemur 0 0 0
rtibia 0
rfoot 0 0
rtoes 0
lfemur -2.21366 -9.70274 -14.0455
ltibia 20.5535
lfoot -28.8663 19.6827
ltoes -52.7558
8
root -0.637249 18.6651 5.86808 2.17306 -5.24742 -1.59446
lowerback -0.901893 1.58442 0.193579
upperback -2.60616 2.11438 0.0378521
thorax -2.15983 1.05277 -0.0906179
lowerneck -9.43531 -1.60202 -1.45364
upperneck 25.0528 -2.72059 2.88432
head 9.49948 -1.09881 0.947635
rclavicle 4.68386e-015 -3.37934e-015
rhumerus -51.2952 -7.25801 -84.4635
rradius 44.1482
rwrist 21.0051
rhand -6.23606 -32.9944
rfingers 7.12502
rthumb 19.6054 -62.0258
lclavicle 4.68386e-015 -3.37934e-015
lhumerus -43.8562 4.74434 88.9653
lradius 37.7085
lwrist -8.49784
lhand -3.50941 -22.5894
lfingers 7.12502
lthumb 22.225 6.15274
rfemur 0 0 0
rtibia 0
rfoot 0 0
rtoes 0
lfemur -2.23222 -9.76076 -14.0597
ltibia 20.5455
lfoot -28.8733 19.7142
ltoes -52.7599
9
root -0.637008 18.6658 5.86715 2.15434 -5.2025 -1.57021
lowerback -0.858698 1.57197 0.180727
upperback -2.59689 2.09751 0.0192564
thorax -2.17434 1.04436 -0.103463
lowerneck -9.28224 -1.62457 -1.49357
upperneck 24.8824 -2.7557 2.94528
head 9.41244 -1.1153 0.972132
rclavicle -6.52262e-015 -8.54774e-015
rhumerus -51.335 -7.27875 -84.4454
rradius 44.1861
rwrist 21.0078
rhand -5.64619 -32.9761
rfingers 7.12502
rthumb 20.1724 -61.9487
lclavicle -6.52262e-015 -8.54774e-015
lhumerus -43.8446 4.75585 88.8932
lradius 37.6925
lwrist -8.52606
lhand -3.44199 -22.666
lfingers 7.12502
lthumb 22.2897 6.06844
rfemur 0 0 0
rtibia 0
rfoot 0 0
rtoes 0
lfemur -2.22063 -9.81651 -14.0928
ltibia 20.5356
lfoot -28.8195 19.7809
ltoes -52.8303
10
root -0.637124 18.6655 5.86963 2.12103 -5.25381 -1.56079
lowerback -0.87604 1.58925 0.18816
upperback -2.55997 2.12015 0.000771681
thorax -2.12561 1.05543 -0.125527
lowerneck -9.18758 -1.63384 -1.52499
upperneck 24.7371 -2.77312 3.00291
head 9.34501 -1.12236 0.995592
rclavicle 1.01132e-014 1.59028e-015
rhumerus -51.3295 -7.29902 -84.433
rradius 44.1709
rwrist 21.0133
rhand -6.44472 -32.8812
rfingers 7.12502
rthumb 19.4048 -61.933
lclavicle 1.01132e-014 1.59028e-015
lhumerus -43.8227 4.76308 88.8252
lradius 37.7023
lwrist -8.51428
lhand -3.40987 -22.7675
lfingers 7.12502
lthumb 22.3206 5.96324
rfemur 0 0 0
rtibia 0
rfoot 0 0
rtoes 0
lfemur -2.15567 -9.84253 -14.1208
ltibia 20.5293
lfoot -28.8779 19.7835
ltoes -52.7265
